<svg xmlns="http://www.w3.org/2000/svg" viewBox="0 0 860 460" font-family="-apple-system,Segoe UI,Roboto,Helvetica,Arial,sans-serif">
<rect x="0" y="0" width="860" height="460" fill="#ffffff"/>
<text x="90" y="34" font-size="20" font-weight="700" fill="#0f172a">AfterFlow 决策引擎 vs 纯 LLM — 整案准确率（100 条评测集）</text>
<line x1="90" y1="390.0" x2="830" y2="390.0" stroke="#e2e8f0" stroke-width="1"/>
<text x="80" y="394.0" font-size="12" fill="#64748b" text-anchor="end">0%</text>
<line x1="90" y1="324.0" x2="830" y2="324.0" stroke="#e2e8f0" stroke-width="1"/>
<text x="80" y="328.0" font-size="12" fill="#64748b" text-anchor="end">20%</text>
<line x1="90" y1="258.0" x2="830" y2="258.0" stroke="#e2e8f0" stroke-width="1"/>
<text x="80" y="262.0" font-size="12" fill="#64748b" text-anchor="end">40%</text>
<line x1="90" y1="192.0" x2="830" y2="192.0" stroke="#e2e8f0" stroke-width="1"/>
<text x="80" y="196.0" font-size="12" fill="#64748b" text-anchor="end">60%</text>
<line x1="90" y1="126.0" x2="830" y2="126.0" stroke="#e2e8f0" stroke-width="1"/>
<text x="80" y="130.0" font-size="12" fill="#64748b" text-anchor="end">80%</text>
<line x1="90" y1="60.0" x2="830" y2="60.0" stroke="#e2e8f0" stroke-width="1"/>
<text x="80" y="64.0" font-size="12" fill="#64748b" text-anchor="end">100%</text>
<rect x="117.5" y="60.0" width="58" height="330.0" rx="4" fill="#2563eb"/>
<rect x="189.5" y="343.8" width="58" height="46.2" rx="4" fill="#94a3b8"/>
<text x="146.5" y="54.0" font-size="13" font-weight="600" fill="#2563eb" text-anchor="middle">100%</text>
<text x="218.5" y="337.8" font-size="13" font-weight="600" fill="#94a3b8" text-anchor="middle">14%</text>
<text x="182.5" y="414" font-size="14" fill="#0f172a" text-anchor="middle">整体</text>
<rect x="302.5" y="60.0" width="58" height="330.0" rx="4" fill="#2563eb"/>
<rect x="374.5" y="330.6" width="58" height="59.4" rx="4" fill="#94a3b8"/>
<text x="331.5" y="54.0" font-size="13" font-weight="600" fill="#2563eb" text-anchor="middle">100%</text>
<text x="403.5" y="324.6" font-size="13" font-weight="600" fill="#94a3b8" text-anchor="middle">18%</text>
<text x="367.5" y="414" font-size="14" fill="#0f172a" text-anchor="middle">退款</text>
<rect x="487.5" y="60.0" width="58" height="330.0" rx="4" fill="#2563eb"/>
<rect x="559.5" y="390.0" width="58" height="0.0" rx="4" fill="#94a3b8"/>
<text x="516.5" y="54.0" font-size="13" font-weight="600" fill="#2563eb" text-anchor="middle">100%</text>
<text x="588.5" y="384.0" font-size="13" font-weight="600" fill="#94a3b8" text-anchor="middle">0%</text>
<text x="552.5" y="414" font-size="14" fill="#0f172a" text-anchor="middle">逆向履约</text>
<rect x="672.5" y="60.0" width="58" height="330.0" rx="4" fill="#2563eb"/>
<rect x="744.5" y="324.0" width="58" height="66.0" rx="4" fill="#94a3b8"/>
<text x="701.5" y="54.0" font-size="13" font-weight="600" fill="#2563eb" text-anchor="middle">100%</text>
<text x="773.5" y="318.0" font-size="13" font-weight="600" fill="#94a3b8" text-anchor="middle">20%</text>
<text x="737.5" y="414" font-size="14" fill="#0f172a" text-anchor="middle">运营预警</text>
<rect x="90" y="438" width="14" height="14" rx="3" fill="#2563eb"/>
<text x="110" y="451" font-size="13" fill="#334155">AfterFlow 决策引擎</text>
<rect x="280" y="438" width="14" height="14" rx="3" fill="#94a3b8"/>
<text x="300" y="451" font-size="13" fill="#334155">纯 LLM (deepseek-v4-flash)</text>
</svg>